<?xml version="1.0" encoding="utf-8"?>
<!-- Generator: Adobe Illustrator 28.4.1, SVG Export Plug-In . SVG Version: 6.00 Build 0)  -->
<svg version="1.1" id="Layer_1" xmlns:serif="http://www.serif.com/"
	 xmlns="http://www.w3.org/2000/svg" xmlns:xlink="http://www.w3.org/1999/xlink" x="0px" y="0px" viewBox="0 0 566.9 566.9"
	 xml:space="preserve">
<rect x="0" y="0" width="100%" height="100%" fill="#f9d591"/>
<style type="text/css">
	.st0{fill:#FFFFFF;}
</style>
<path class="st0" d="M540.6,435.5l-90.9-30.3L313.3,40.3c-4.7-12.6-16.4-20.7-29.8-20.7c-13.4,0-25.1,8.1-29.8,20.7L117.2,405.2
	l-90.9,30.3c-4,1.3-6.8,5.1-6.8,9.4s2.6,8.1,6.6,9.5l254,92.3c1.1,0.4,2.3,0.6,3.4,0.6c1.2,0,2.3-0.2,3.4-0.6l254-92.3
	c4-1.5,6.6-5.3,6.6-9.5S544.6,436.9,540.6,435.5z M283.5,281.1c0.5,0,1.4,0,2.9,0c11,0,49-0.9,91.1-12l29.7,79.5
	c-57.7,24.4-122.8,23.1-123.4,23.1c-0.2,0-0.3,0-0.5,0c-0.7,0-65.8,1.3-123.5-23.1l29.7-79.5C237.1,281.7,279.4,281.2,283.5,281.1z
	 M196.5,250.3l29.4-78.5c31.2,4.8,54.8,4.5,57.6,4.5c0.4,0,1.4,0,2.7,0c7.5,0,28.4-0.4,54.8-4.5l29.4,78.5
	c-45.5,11.7-86.3,10.9-86.7,10.8c-0.2,0-0.3,0-0.5,0C282.8,261.1,242.1,262,196.5,250.3z M272.4,47.3c2.7-7.1,9.1-7.7,11.1-7.7
	c1.9,0,8.4,0.6,11.1,7.7l39.4,105.3c-28.7,4.1-49.9,3.6-50.2,3.6c-0.2,0-0.3,0-0.5,0c-0.2,0-21.5,0.4-50.2-3.6L272.4,47.3z
	 M152.7,367.3c60.2,25.2,125.4,24.5,130.7,24.4c0.5,0,1.5,0,3,0c14.5,0,73.1-1.5,127.7-24.4l17.9,48
	c-61.9,37.3-147.5,35.8-148.4,35.7c-0.2,0-0.3,0-0.5,0c-0.9,0-86.4,1.7-148.4-35.7L152.7,367.3z M283.5,526.6L59.9,445.4l55.9-18.6
	c0.4,0.3,0.8,0.7,1.2,1c66.6,44.5,159.8,43.5,166.4,43.3c0.5,0,1.6,0,3.1,0c18,0,102-2.3,163.3-43.3c0.4-0.3,0.8-0.6,1.2-1
	l55.9,18.6L283.5,526.6z"/>
</svg>
