<?xml version="1.0" encoding="utf-8"?>
<!-- Generator: Adobe Illustrator 28.4.1, SVG Export Plug-In . SVG Version: 6.00 Build 0)  -->
<svg version="1.1" id="Layer_1" xmlns:serif="http://www.serif.com/"
	 xmlns="http://www.w3.org/2000/svg" xmlns:xlink="http://www.w3.org/1999/xlink" x="0px" y="0px" viewBox="0 0 566.9 566.9"
	 style="enable-background:new 0 0 566.9 566.9;" xml:space="preserve">
<style type="text/css">
	.st0{fill:none;}
	.st1{fill:#952822;}
</style>
<g>
	<path class="st0" d="M66.4,381.5c0,17.6,14.3,32,32,32s32-14.3,32-32c0-12.5-17.1-52.4-32-83.4C83.5,329.1,66.4,369,66.4,381.5z"/>
	<path class="st0" d="M140.4,101.1c-14.9,31.1-32,70.9-32,83.4c0,17.6,14.3,32,32,32s32-14.3,32-32c0-3.7-2-16.8-20.1-57.7
		C148.1,117.4,143.9,108.4,140.4,101.1z"/>
	<path class="st0" d="M220.6,390.9c-12.1,26.7-23.2,54.6-23.2,64.7c0,17.6,14.3,32,32,32s32-14.3,32-32c0-6-4-18.4-9.7-33
		C240,413.3,229.6,402.7,220.6,390.9z"/>
	<path class="st1" d="M170.5,118.7c-10.5-23.6-21.1-44.6-21.2-44.8l-8.9-17.6l-8.9,17.6c-0.1,0.2-10.7,21.2-21.2,44.8
		c-21.9,49.2-21.9,61.7-21.9,65.8c0,28.7,23.3,52,52,52s52-23.3,52-52C192.4,180.4,192.4,167.9,170.5,118.7z M140.4,216.5
		c-17.6,0-32-14.3-32-32c0-12.5,17.1-52.3,32-83.4c3.5,7.4,7.7,16.3,11.9,25.7c18.2,40.9,20.1,54,20.1,57.7
		C172.4,202.1,158,216.5,140.4,216.5z"/>
	<path class="st1" d="M107.3,270.8l-8.9-17.6l-8.9,17.6c-0.1,0.2-10.7,21.2-21.2,44.8c-21.9,49.2-21.9,61.7-21.9,65.8
		c0,28.7,23.3,52,52,52s52-23.3,52-52c0-4.1,0-16.6-21.9-65.8C118.1,292.1,107.4,271,107.3,270.8z M98.4,413.4
		c-17.6,0-32-14.3-32-32c0-12.5,17.1-52.4,32-83.4c14.9,31.1,32,70.9,32,83.4C130.4,399.1,116,413.4,98.4,413.4z"/>
	<path class="st1" d="M362,105.8c-97.9,0-177.6,79.7-177.6,177.6c0,31.9,8.5,61.9,23.3,87.8c-2.7,5.7-5.5,12-8.4,18.4
		c-21.9,49.2-21.9,61.7-21.9,65.8c0,28.7,23.3,52,52,52s52-23.3,52-52c0-2,0-6-2.5-15.1c24.8,13.2,53.1,20.7,83.1,20.7
		c97.9,0,177.6-79.7,177.6-177.6C539.6,185.5,459.9,105.8,362,105.8z M362,431.1c-81.4,0-147.6-66.2-147.6-147.6
		c0-81.4,66.2-147.6,147.6-147.6c81.4,0,147.6,66.2,147.6,147.6C509.6,364.9,443.4,431.1,362,431.1z M261.4,455.5
		c0,17.6-14.3,32-32,32s-32-14.3-32-32c0-10.1,11.1-37.9,23.2-64.7c9,11.8,19.4,22.4,31,31.7C257.4,437.2,261.4,449.5,261.4,455.5z"
		/>
	<polygon class="st1" points="456.8,198.7 300.2,345 269.2,301.9 244.8,319.4 295.8,390.2 477.2,220.6 	"/>
</g>
</svg>
