<?xml version="1.0" encoding="utf-8"?>
<!-- Generator: Adobe Illustrator 28.4.1, SVG Export Plug-In . SVG Version: 6.00 Build 0)  -->
<svg version="1.1" id="Layer_1" xmlns:serif="http://www.serif.com/"
	 xmlns="http://www.w3.org/2000/svg" xmlns:xlink="http://www.w3.org/1999/xlink" x="0px" y="0px" viewBox="0 0 566.9 566.9"
	 style="enable-background:new 0 0 566.9 566.9;" xml:space="preserve">
<style type="text/css">
	.st0{fill:#952822;}
</style>
<g>
	<path class="st0" d="M283,116.9l-18.2,35.9c-0.2,0.4-21.9,43.3-43.2,91.4C177,344.6,177,370,177,378.4c0,58.4,47.6,106,106,106
		s106-47.6,106-106c0-8.4,0-33.9-44.6-134.2c-21.4-48.1-43-91-43.2-91.4L283,116.9z M348.2,378.4c0,36-29.3,65.2-65.2,65.2
		s-65.2-29.3-65.2-65.2c0-25.5,34.9-106.7,65.2-170.1c7.2,15,15.7,33.3,24.2,52.4C344.2,344.2,348.2,370.8,348.2,378.4z"/>
	<path class="st0" d="M520.9,216.3l-27.5,9.7c15,42.5,16.9,88.1,5.3,131.8c-11.8,44.7-36.9,84.1-72.5,114
		c-40.6,34-90.7,52.2-143,52.2c-6.6,0-13.3-0.3-20-0.9c-59.4-5.2-113.2-33.3-151.6-79S55.1,340.4,60.4,281
		c5.2-59.4,33.3-113.2,79-151.6C202,77.1,287.9,63.3,363.1,92.2l-63.7,23.2l6,16.4l98.6-36L361,0.2l-16,7.2l25.4,56.5
		c-84.3-31.1-179.9-15.2-249.7,43.3C69,150.4,37.3,211.3,31.4,278.5c-5.9,67.2,14.7,132.6,58,184.3c43.3,51.7,104.1,83.4,171.3,89.4
		c7.6,0.7,15.1,1,22.6,1c59.1,0,115.8-20.5,161.7-59c40.2-33.7,68.6-78.3,81.9-128.9C540,315.8,537.9,264.3,520.9,216.3z"/>
</g>
</svg>
