<?xml version="1.0" encoding="utf-8"?>
<!-- Generator: Adobe Illustrator 28.4.1, SVG Export Plug-In . SVG Version: 6.00 Build 0)  -->
<svg version="1.1" id="Layer_1" xmlns:serif="http://www.serif.com/"
	 xmlns="http://www.w3.org/2000/svg" xmlns:xlink="http://www.w3.org/1999/xlink" x="0px" y="0px" viewBox="0 0 566.9 566.9"
	 style="enable-background:new 0 0 566.9 566.9;" xml:space="preserve">
<style type="text/css">
	.st0{fill-rule:evenodd;clip-rule:evenodd;fill:#952822;}
</style>
<path class="st0" d="M1.2,466.9c-0.3-1-0.4-2.1-0.4-3.1c0,0-0.6-236.5,0-316.4C1.5,60.5,17.2,44.1,41.2,24.4
	c10.2-8.4,25.4-13.7,40.2-16.7c20.3-4.1,39.4-4,39.4-4c6.9,0,12.4,5.6,12.4,12.4v118.9l420.3,2.9c3.3,0,6.5,1.4,8.8,3.7
	c2.3,2.3,3.6,5.5,3.6,8.8l-3,399.8c-0.1,6.8-5.6,12.3-12.4,12.3c0,0-393.6,0.5-432.8,0c-26.1-0.3-61.9-6.4-86.8-29.5
	C15.2,518.7,3.5,497.7,1.2,466.9L1.2,466.9z M108.3,147.4V29.2c-6.1,0.5-13.9,1.4-22,3c-10.7,2.2-21.9,5.5-29.4,11.5
	c-20.2,16.5-30.7,31-31.3,103.9c-0.4,51.8-0.3,169.6-0.1,245.8c11.1-10.5,24.9-17.3,38.6-21.7c17.6-5.6,35.2-7,46.9-7.2l-2.8-216.9
	V147.4L108.3,147.4z M122.6,389.6c0,0-25.5-2.2-50.8,5.8c-23.3,7.4-46.6,24.2-46,62.2c0.4,27.1,9.1,45.4,22,57.4
	c20,18.6,49.1,22.6,70.2,22.8c35.1,0.5,353.2,0.1,420.2,0l2.8-375.1L133.3,160l2.8,217.1c0,3.5-1.4,6.9-4,9.3
	C129.5,388.7,126.1,389.9,122.6,389.6L122.6,389.6z M183,352.7l181-106.9c3.7-2.2,8.2-2.3,12-0.3l88.2,45.7
	c4.1,2.1,6.6,6.3,6.7,10.8l2.3,130.2c0.1,3.3-1.2,6.5-3.5,8.9c-2.3,2.4-5.4,3.7-8.7,3.8l-271.5,4.5c-3.3,0.1-6.5-1.2-8.9-3.6
	c-2.4-2.3-3.7-5.5-3.7-8.9v-73.5C176.9,359,179.2,354.9,183,352.7L183,352.7z M276.7,326.2l-74.9,44.3v53.8l74.9-1.2V326.2z
	 M301.6,422.6l146.6-2.4l-2-110.4l-75.5-39.2l-69.2,40.8V422.6L301.6,422.6z"/>
</svg>
