<?xml version="1.0" encoding="UTF-8" standalone="no"?><!DOCTYPE svg PUBLIC "-//W3C//DTD SVG 1.1//EN" "http://www.w3.org/Graphics/SVG/1.1/DTD/svg11.dtd"><svg width="100%" height="100%" viewBox="0 0 196 135" version="1.1" xmlns="http://www.w3.org/2000/svg" xmlns:xlink="http://www.w3.org/1999/xlink" xml:space="preserve" xmlns:serif="http://www.serif.com/" style="fill-rule:evenodd;clip-rule:evenodd;stroke-linejoin:round;stroke-miterlimit:2;"><path d="M153.164,81.662c0.022,0.811 -0.01,5.349 -3.313,8.139c-1.493,1.262 -3.656,2.286 -6.914,2.233c-6.482,-0.105 -142.927,0.001 -142.927,0.001l-0.011,-8.333c0,0 136.58,-0.105 143.073,0.001c0.639,0.01 1.107,-0.019 1.4,-0.266c0.528,-0.446 0.379,-1.236 0.379,-1.236c-0.009,-0.11 -0.013,-0.221 -0.013,-0.332l0,-71l8.333,-0l0,71l-0.008,-0.206Zm41.842,28.206c0,13.246 -10.754,24 -24,24l-171.006,1l0,-8l171.006,-1l0,-0.1c8.776,0 15.9,-7.125 15.9,-15.9l0.1,0l0,-98l8,0l-0,98Zm-20.917,-13c0,8.831 -7.169,16 -16,16l0,-8c3.85,0 7.417,-3.15 7.417,-8l8.583,-0Zm-45.083,8l16,0l0,8l-16,0l0,-8Zm-32,0l16,0l0,8l-16,0l0,-8Zm-31,0l16,0l0,8l-16,0l0,-8Zm109.083,-92.5l0,16l-8.583,0l0,-16l8.583,0Zm0,27l0,16l-8.583,0l0,-16l8.583,0Zm0,29l0,16l-8.583,0l0,-16l8.583,0Zm-125.586,36.5l0,8l-17,0l0,-8l17,0Zm-32.503,0l0,8l-17,0l0,-8l17,0Zm19.983,-55.918l38.966,-47.465c1.423,-1.734 3.983,-1.985 5.716,-0.562l18.835,15.463c1.734,1.423 1.985,3.983 0.562,5.716l-38.347,46.712c-0.615,0.749 -1.478,1.254 -2.433,1.423l-17.7,3.126c-1.114,0.197 -2.26,-0.08 -3.161,-0.764c-0.901,-0.684 -1.477,-1.712 -1.587,-2.838l-1.754,-17.835c-0.105,-1.072 0.219,-2.142 0.903,-2.975Zm25.123,7.803l20.823,-25.365l-12.557,-10.308l-20.823,25.365l12.557,10.308Zm-17.711,-4.03l-0.066,0.081l1.16,11.796l11.006,-1.944l-12.1,-9.933Zm43.688,-27.613l4.123,-5.023l-12.557,-10.308l-4.123,5.023l12.557,10.308Z" style="fill:#952822;"/></svg>