<?xml version="1.0" encoding="UTF-8" standalone="no"?><!DOCTYPE svg PUBLIC "-//W3C//DTD SVG 1.1//EN" "http://www.w3.org/Graphics/SVG/1.1/DTD/svg11.dtd"><svg width="100%" height="100%" viewBox="0 0 257 236" version="1.1" xmlns="http://www.w3.org/2000/svg" xmlns:xlink="http://www.w3.org/1999/xlink" xml:space="preserve" xmlns:serif="http://www.serif.com/" style="fill-rule:evenodd;clip-rule:evenodd;stroke-linejoin:round;stroke-miterlimit:2;"><path d="M37.895,159.269c0.429,1.597 0.658,3.276 0.658,5.008c0,10.639 -8.637,19.276 -19.276,19.276c-10.639,0 -19.276,-8.637 -19.276,-19.276c0,-10.639 8.637,-19.276 19.276,-19.276c5.916,0 11.214,2.671 14.751,6.873l22.35,-10.157c-2.195,-7.055 -3.378,-14.555 -3.378,-22.329c0,-32.986 21.293,-61.037 50.872,-71.147l-2.31,-7.7c-0.251,0.009 -0.503,0.014 -0.755,0.014c-11.191,0 -20.276,-9.086 -20.276,-20.276c0,-11.191 9.086,-20.276 20.276,-20.276c11.191,0 20.276,9.086 20.276,20.276c0,8.019 -4.665,14.956 -11.426,18.245l2.24,7.467c5.24,-1.158 10.684,-1.769 16.269,-1.769c25.198,0 47.517,12.426 61.158,31.479l18.697,-11.966c-0.461,-1.402 -0.71,-2.9 -0.71,-4.456c0,-7.879 6.397,-14.276 14.276,-14.276c7.879,0 14.276,6.397 14.276,14.276c0,7.879 -6.397,14.276 -14.276,14.276c-3.299,0 -6.339,-1.122 -8.758,-3.004l-19.037,12.183c6.075,10.846 9.54,23.349 9.54,36.654c0,9.991 -1.953,19.529 -5.499,28.254l33.187,14.287c2.618,-3.017 6.481,-4.926 10.785,-4.926c7.879,0 14.276,6.397 14.276,14.276c0,7.879 -6.397,14.276 -14.276,14.276c-7.879,0 -14.276,-6.397 -14.276,-14.276c-0,-0.587 0.036,-1.166 0.105,-1.735l-33.366,-14.364c-12.731,23.444 -37.571,39.375 -66.102,39.375c-5.666,0 -11.187,-0.628 -16.497,-1.819l-6.193,17.203c3.407,2.61 5.606,6.72 5.606,11.34c0,7.879 -6.397,14.276 -14.276,14.276c-7.879,0 -14.276,-6.397 -14.276,-14.276c0,-7.879 6.397,-14.276 14.276,-14.276c0.289,0 0.576,0.009 0.861,0.026l5.967,-16.574c-19.856,-6.862 -35.951,-21.816 -44.333,-40.912l-21.407,9.729Zm62.912,-150.935c-6.592,0 -11.943,5.351 -11.943,11.943c0,6.592 5.351,11.943 11.943,11.943c6.592,0 11.943,-5.351 11.943,-11.943c0,-6.592 -5.351,-11.943 -11.943,-11.943Zm120.781,45c-3.28,0 -5.943,2.663 -5.943,5.943c0,3.28 2.663,5.943 5.943,5.943c3.28,0 5.943,-2.663 5.943,-5.943c0,-3.28 -2.663,-5.943 -5.943,-5.943Zm-202.311,100c-6.04,0 -10.943,4.903 -10.943,10.943c0,6.04 4.903,10.943 10.943,10.943c6.04,0 10.943,-4.903 10.943,-10.943c0,-6.04 -4.903,-10.943 -10.943,-10.943Zm89.221,-97.834c-27.299,8.406 -47.164,33.845 -47.164,63.887c0,30.042 19.865,55.481 47.164,63.887c0.677,-0.111 1.39,-0.056 2.08,0.192c0.487,0.175 0.921,0.432 1.293,0.749c5.217,1.309 10.676,2.004 16.296,2.004c36.886,0 66.833,-29.947 66.833,-66.833c0,-36.886 -29.947,-66.833 -66.833,-66.833c-5.62,0 -11.08,0.695 -16.296,2.004c-0.427,0.365 -0.935,0.648 -1.506,0.82c-0.626,0.188 -1.262,0.221 -1.867,0.122Zm22.836,9.887l-0,35.833l34.833,0c1.486,-0 2.86,0.792 3.605,2.078c0.745,1.286 0.748,2.872 0.009,4.161l-39,68c-0.939,1.638 -2.863,2.439 -4.687,1.953c-1.824,-0.486 -3.094,-2.138 -3.094,-4.026l0,-45.833l-32.833,0c-1.522,-0 -2.922,-0.829 -3.654,-2.164c-0.731,-1.334 -0.677,-2.961 0.141,-4.244l37,-58c0.996,-1.561 2.902,-2.278 4.68,-1.759c1.778,0.519 2.999,2.148 2.999,4Zm-8.333,14.279l-25.233,39.554l29.4,0c2.301,-0 4.167,1.865 4.167,4.167l0,34.36l27.64,-48.193l-31.807,0c-2.301,-0 -4.167,-1.865 -4.167,-4.167l0,-25.721Zm112.912,90.856c-0.031,0.247 -0.048,0.499 -0.048,0.755c0,3.28 2.663,5.943 5.943,5.943c3.28,0 5.943,-2.663 5.943,-5.943c0,-3.28 -2.663,-5.943 -5.943,-5.943c-1.783,0 -3.383,0.787 -4.473,2.032c0.003,0.557 -0.106,1.124 -0.34,1.669c-0.254,0.59 -0.628,1.091 -1.082,1.488Zm-138.675,44.827c-0.142,-0.01 -0.285,-0.015 -0.429,-0.015c-3.28,0 -5.943,2.663 -5.943,5.943c0,3.28 2.663,5.943 5.943,5.943c3.28,0 5.943,-2.663 5.943,-5.943c0,-1.929 -0.921,-3.644 -2.346,-4.73c-0.544,0.032 -1.104,-0.044 -1.649,-0.24c-0.589,-0.212 -1.102,-0.544 -1.519,-0.958Z" style="fill:#952822;"/></svg>