<?xml version="1.0" encoding="UTF-8" standalone="no"?><!DOCTYPE svg PUBLIC "-//W3C//DTD SVG 1.1//EN" "http://www.w3.org/Graphics/SVG/1.1/DTD/svg11.dtd"><svg width="100%" height="100%" viewBox="0 0 174 174" version="1.1" xmlns="http://www.w3.org/2000/svg" xmlns:xlink="http://www.w3.org/1999/xlink" xml:space="preserve" xmlns:serif="http://www.serif.com/" style="fill-rule:evenodd;clip-rule:evenodd;stroke-linejoin:round;stroke-miterlimit:2;"><path d="M69.858,137.358c5.296,1.763 10.961,2.717 16.846,2.717c8.001,0 15.593,-1.763 22.407,-4.924c2.062,-0.956 4.509,-0.084 5.501,1.96l10.747,22.136c0.486,1.001 0.551,2.155 0.181,3.205c-0.37,1.05 -1.145,1.908 -2.151,2.383c-11.184,5.278 -23.678,8.231 -36.857,8.231c-17.998,0 -34.72,-5.507 -48.572,-14.925c-0.954,-0.648 -1.596,-1.663 -1.774,-2.802c-0.178,-1.139 0.124,-2.302 0.835,-3.21l15.312,-19.579c1.327,-1.696 3.727,-2.102 5.538,-0.936c3.501,2.254 7.281,4.109 11.278,5.503c0.24,0.058 0.478,0.139 0.709,0.242Zm-7.984,5.843c-1.795,-0.791 -3.545,-1.664 -5.246,-2.616l-10.221,13.069c2.081,1.248 4.225,2.402 6.426,3.455l9.04,-13.908Zm-1.206,17.147c2.379,0.834 4.81,1.557 7.287,2.162l8.155,-15.009c-2.098,-0.364 -4.16,-0.833 -6.179,-1.404l-9.263,14.251Zm35.138,3.841c3.474,-0.411 6.878,-1.05 10.197,-1.902l5.319,-12.727l0.033,-0.078l-2.511,-5.172c-1.964,0.756 -3.976,1.415 -6.031,1.97l-7.008,17.908Zm-19.233,-0.085c3.262,0.415 6.587,0.63 9.961,0.63l0.111,-0l6.519,-16.66c-2.123,0.221 -4.278,0.335 -6.459,0.335c-0.532,0 -1.063,-0.007 -1.592,-0.02l-8.539,15.716Zm-10.512,-130.721l-10.324,-22.976c-0.479,-1.066 -0.488,-2.284 -0.025,-3.358c0.463,-1.073 1.355,-1.903 2.459,-2.286c8.887,-3.086 18.43,-4.764 28.362,-4.764c47.759,0 86.534,38.774 86.534,86.534c0,25.069 -10.682,47.663 -27.741,63.473c-0.833,0.772 -1.945,1.171 -3.079,1.103c-1.134,-0.067 -2.191,-0.594 -2.927,-1.46l-15.949,-18.748c-1.428,-1.678 -1.302,-4.179 0.288,-5.705c10.116,-9.715 16.417,-23.373 16.417,-38.492c0,-29.456 -23.915,-53.371 -53.371,-53.371c-5.435,0 -10.681,0.813 -15.623,2.326c-2.008,0.615 -4.16,-0.361 -5.02,-2.276Zm6.141,-6.665c4.652,-1.122 9.508,-1.718 14.502,-1.718c34.056,0 61.704,27.649 61.704,61.704c0,16.066 -6.153,30.706 -16.229,41.69l10.593,12.452c13.593,-14.072 21.961,-33.223 21.961,-54.313c0,-43.16 -35.04,-78.2 -78.2,-78.2c-7.373,0 -14.509,1.022 -21.274,2.933l6.943,15.451Zm-27.498,98.967l-17.95,17.279c-0.827,0.796 -1.947,1.216 -3.093,1.16c-1.147,-0.056 -2.22,-0.583 -2.965,-1.457c-12.902,-15.116 -20.696,-34.722 -20.696,-56.133c0,-28.463 13.77,-53.736 35.009,-69.51c0.908,-0.675 2.052,-0.951 3.168,-0.765c1.116,0.186 2.109,0.817 2.75,1.75l14.214,20.675c1.255,1.826 0.862,4.316 -0.896,5.665c-12.71,9.76 -20.912,25.108 -20.912,42.356c0,12.623 4.392,24.229 11.73,33.37c1.35,1.681 1.194,4.115 -0.36,5.61Zm-8.438,-3.445c-7.096,-10.05 -11.267,-22.309 -11.267,-35.536c0,-18.517 8.173,-35.14 21.106,-46.453l-9.53,-13.862c-17.251,14.35 -28.242,35.974 -28.242,60.145c0,17.757 5.931,34.139 15.919,47.272l12.014,-11.565Zm39.218,-11.675c-6.827,-3.85 -11.679,-11.686 -12.463,-19.327c-1.033,-10.055 5.119,-14.951 14.722,-21.815c6.85,-4.897 10.179,-15.531 10.424,-16.336l0.015,-0.048c0.392,-1.282 1.385,-2.32 2.698,-2.746c0.071,-0.023 0.143,-0.044 0.215,-0.063c1.26,-0.336 2.575,-0.058 3.582,0.701l0.029,0.022c0.556,0.424 8.981,6.891 14.431,13.796c2.841,3.599 4.824,7.385 5.173,10.618c1.04,9.633 1.217,20.245 -4.716,28.818c-6.099,8.812 -15.315,9.405 -25.361,8.836c-4.485,5.67 -8.37,8.97 -8.37,8.97c-1.754,1.488 -4.385,1.271 -5.873,-0.482c-1.488,-1.754 -1.271,-4.385 0.482,-5.873c0,0 2.158,-1.827 5.014,-5.07Zm14.431,-42.28c-1.971,2.953 -4.411,5.834 -7.326,7.917c-3.067,2.192 -5.792,4.057 -7.891,6.036c-2.347,2.213 -3.756,4.558 -3.387,8.148c0.566,5.515 4.16,11.453 9.335,13.523c3.004,-4.43 5.907,-9.919 7.481,-16.123c1.781,-7.018 2.06,-13.897 1.788,-19.503Zm-0.104,36.653c5.095,0.04 9.708,-0.842 12.929,-5.496c4.758,-6.874 4.117,-15.458 3.284,-23.182c-0.301,-2.793 -2.926,-5.975 -5.67,-8.969c-0.763,-0.833 -1.55,-1.643 -2.335,-2.418c0.563,6.774 0.521,15.764 -1.814,24.965c-1.421,5.6 -3.778,10.697 -6.394,15.1Z" style="fill:#952822;"/></svg>