<?xml version="1.0" encoding="utf-8"?>
<!-- Generator: Adobe Illustrator 28.4.1, SVG Export Plug-In . SVG Version: 6.00 Build 0)  -->
<svg version="1.1" id="Layer_1" xmlns:serif="http://www.serif.com/"
	 xmlns="http://www.w3.org/2000/svg" xmlns:xlink="http://www.w3.org/1999/xlink" x="0px" y="0px" viewBox="0 0 566.9 566.9"
	 style="enable-background:new 0 0 566.9 566.9;" xml:space="preserve">
<style type="text/css">
	.st0{fill:none;}
	.st1{fill:#952822;}
</style>
<g>
	<path class="st0" d="M86.5,339.5c-2.2,3.5-1.2,8.2,2.3,10.4l3,1.9c2.3,1.5,4.5,1.3,5.7,1c1.1-0.2,3.3-1,4.7-3.3l104.2-161.9
		c-5.2-3.5-10.4-6.8-15.7-10.1L86.5,339.5z"/>
	<polygon class="st0" points="465.7,322.6 421.7,330.6 412.7,352.6 431.9,347.9 490.4,412.3 468.2,432.5 421.7,381.3 360.6,396.3 
		341,483.5 311.7,476.9 317.3,451.8 297.2,445.6 250.1,472.1 228,507.2 450.9,507.2 449.4,499.7 408.4,478.6 422.2,451.9 476,479.6 
		481.5,507.2 501,507.2 501,296.3 477.9,283 	"/>
	<path class="st1" d="M313,288.2c3.5,5.4,9.2,8.4,15.2,8.4c2.3,0,4.6-0.4,6.8-1.3c8.2-3.2,12.8-11.6,11.2-20.2
		c-3.5-18.8-10.9-47.4-26-77.4c-12.7-25.1-28.6-46.6-47.3-64.2c0.6-4.4,0.5-8.9-0.5-13.4c-2.1-9.8-7.9-18.2-16.4-23.6l-3-1.9
		c-12.7-8.2-28.6-7.7-40.6,0c-23.7-9.8-49.7-15.3-77.8-16.5c-33.5-1.4-62.6,3.7-81.2,8.3C45,88.5,39.2,96.4,39.7,105
		c0.5,8.8,6.9,15.9,15.6,17.1c32.4,4.5,71.3,19.6,109.4,40.4L61.3,323.3c-11.2,17.4-6.2,40.7,11.2,51.9l3,1.9c6.1,3.9,13.1,6,20.2,6
		c2.7,0,5.4-0.3,8-0.9c9.8-2.1,18.2-7.9,23.6-16.4l103.4-160.7C265.6,231.3,295.4,260.5,313,288.2z M228.2,136.5
		c36.6,23.5,58.6,58.1,71.7,88.8c-48-48.3-118.3-93.6-181.9-117.3C151.3,107.3,191.8,113.1,228.2,136.5z M102.2,349.6
		c-1.5,2.3-3.6,3-4.7,3.3c-1.1,0.2-3.4,0.4-5.7-1l-3-1.9c-3.5-2.2-4.5-6.9-2.3-10.4l104.2-161.9c5.3,3.3,10.5,6.7,15.7,10.1
		L102.2,349.6z"/>
	<path class="st1" d="M460.4,238.3l-17.9,58.1l-42.2,7.7l-23.6,57.4l-41.2,10.1l-11.4,50.9l-30.3-9.2l-64.9,36.5l-55,87.5H531V278.9
		L460.4,238.3z M501,507.2h-19.6l-5.5-27.6l-53.8-27.7l-13.7,26.7l40.9,21.1l1.5,7.5H228l22-35.1l47.1-26.5l20.1,6.1l-5.6,25.1
		l29.3,6.6l19.6-87.2l61.1-14.9l46.5,51.2l22.2-20.2l-58.5-64.4l-19.2,4.7l9.1-22l44-8.1l12.2-39.6l23.1,13.3V507.2z"/>
	
		<rect x="385.3" y="182.2" transform="matrix(0.521 -0.8536 0.8536 0.521 37.9068 462.0093)" class="st1" width="90.6" height="30"/>
	
		<rect x="345.1" y="155.6" transform="matrix(0.1025 -0.9947 0.9947 0.1025 168.365 527.7377)" class="st1" width="63.1" height="30"/>
	
		<rect x="233.7" y="357.1" transform="matrix(0.8102 -0.5861 0.5861 0.8102 -166.5435 229.8117)" class="st1" width="75.8" height="30"/>
	<rect x="236.6" y="300" transform="matrix(0.955 -0.2966 0.2966 0.955 -81.6982 91.4593)" class="st1" width="47.9" height="30"/>
</g>
</svg>
