<?xml version="1.0" encoding="UTF-8" standalone="no"?><!DOCTYPE svg PUBLIC "-//W3C//DTD SVG 1.1//EN" "http://www.w3.org/Graphics/SVG/1.1/DTD/svg11.dtd"><svg width="100%" height="100%" viewBox="0 0 190 190" version="1.1" xmlns="http://www.w3.org/2000/svg" xmlns:xlink="http://www.w3.org/1999/xlink" xml:space="preserve" xmlns:serif="http://www.serif.com/" style="fill-rule:evenodd;clip-rule:evenodd;stroke-linejoin:round;stroke-miterlimit:2;"><path d="M161.03,63.483l-0.458,-0.459l22.649,-22.613l5.888,5.897l-19.147,19.117c6.68,18.056 6.601,38.053 -0.235,56.062l20.018,20.049l-5.897,5.888l-21.907,-21.941c-1.198,-1.161 -1.628,-2.982 -0.942,-4.611c7.363,-17.493 7.444,-37.337 0.239,-54.883c-0.339,-0.825 -0.393,-1.697 -0.208,-2.506Zm-93.602,104.316l-21.27,21.237l-5.888,-5.897l22.649,-22.613l0.055,0.055c1.086,-1.595 3.178,-2.269 5.032,-1.504c17.535,7.232 37.379,7.182 54.883,-0.153c1.63,-0.683 3.45,-0.25 4.609,0.949l21.907,21.941l-5.897,5.888l-20.018,-20.049c-18.019,6.807 -38.017,6.855 -56.062,0.147Zm-46.629,-102.999l-18.605,-18.634l5.897,-5.888l21.907,21.941l-0.336,0.335c0.284,0.907 0.262,1.916 -0.136,2.86c-7.495,17.807 -7.444,38.049 0.155,55.824c0.74,1.731 0.216,3.688 -1.159,4.836l0.015,0.015l-22.649,22.613l-5.888,-5.897l20.951,-20.918c-7.068,-18.322 -7.118,-38.738 -0.153,-57.088Zm43.643,-36.97l-21.907,-21.941l5.897,-5.888l18.605,18.634c18.361,-6.937 38.776,-6.855 57.087,0.243l18.828,-18.799l5.888,5.897l-22.649,22.613l-0.665,-0.666c-0.682,0.07 -1.391,-0.027 -2.065,-0.317c-17.763,-7.627 -38.005,-7.71 -55.824,-0.243c-0.945,0.396 -1.954,0.417 -2.861,0.131l-0.336,0.335Zm104.062,-2.159l-11.089,11.071l-5.299,-5.307l11.089,-11.071l5.299,5.307Zm-131.625,131.419l-11.089,11.071l-5.299,-5.307l11.089,-11.071l5.299,5.307Zm-9.974,-135.596l11.071,11.089l-5.307,5.299l-11.071,-11.089l5.307,-5.299Zm129.299,129.502l11.071,11.089l-5.307,5.299l-11.071,-11.089l5.307,-5.299Zm-113.054,-78.191c2.757,-6.654 6.84,-12.886 12.251,-18.288c1.054,-1.053 2.14,-2.055 3.254,-3.006l5.413,6.336c-0.951,0.813 -1.878,1.669 -2.779,2.568c-0.9,0.899 -1.758,1.825 -2.572,2.775c-3.355,3.915 -5.979,8.243 -7.868,12.805l-7.699,-3.189Zm56.583,-34.594l-0.656,8.307c-2.514,-0.198 -5.041,-0.2 -7.555,-0.006c-4.993,0.386 -9.938,1.547 -14.637,3.485l-3.177,-7.704c8.285,-3.417 17.221,-4.778 26.025,-4.083Zm38.46,19.622l-6.336,5.413c-0.813,-0.951 -1.669,-1.878 -2.568,-2.779c-0.899,-0.9 -1.825,-1.758 -2.775,-2.572c-3.915,-3.355 -8.243,-5.979 -12.805,-7.868l3.189,-7.699c6.654,2.757 12.886,6.84 18.288,12.251c1.053,1.054 2.055,2.14 3.006,3.254Zm13.299,41.078l-8.307,-0.656c0.198,-2.514 0.2,-5.041 0.006,-7.555c-0.386,-4.993 -1.547,-9.938 -3.485,-14.637l7.704,-3.177c3.417,8.285 4.778,17.221 4.083,26.025Zm-19.622,38.459l-5.413,-6.336c0.951,-0.813 1.878,-1.669 2.779,-2.568c0.9,-0.899 1.758,-1.825 2.572,-2.775c3.355,-3.915 5.979,-8.243 7.868,-12.805l7.699,3.189c-2.757,6.654 -6.84,12.886 -12.251,18.288c-1.054,1.053 -2.14,2.055 -3.254,3.006Zm-41.078,13.299l0.656,-8.307c2.514,0.198 5.041,0.2 7.555,0.006c4.993,-0.386 9.938,-1.547 14.637,-3.485l3.177,7.704c-8.285,3.417 -17.221,4.778 -26.025,4.083Zm-38.459,-19.622l6.336,-5.413c0.813,0.951 1.669,1.878 2.568,2.779c0.899,0.9 1.825,1.758 2.775,2.572c3.915,3.355 8.243,5.979 12.805,7.868l-3.189,7.699c-6.654,-2.757 -12.886,-6.84 -18.288,-12.251c-1.053,-1.054 -2.055,-2.14 -3.006,-3.254Zm-13.299,-41.078l8.307,0.656c-0.198,2.514 -0.2,5.041 -0.006,7.555c0.386,4.993 1.547,9.938 3.485,14.637l-7.704,3.177c-3.417,-8.285 -4.778,-17.221 -4.083,-26.025Zm54.876,-29.561c18.215,0 33.003,14.788 33.003,33.003c0,18.215 -14.788,33.003 -33.003,33.003c-18.215,0 -33.003,-14.788 -33.003,-33.003c0,-18.215 14.788,-33.003 33.003,-33.003Zm0,8.333c-13.615,-0 -24.669,11.054 -24.669,24.669c0,13.615 11.054,24.669 24.669,24.669c13.615,0 24.669,-11.054 24.669,-24.669c-0,-13.615 -11.054,-24.669 -24.669,-24.669Z" style="fill:#952822;"/></svg>