<?xml version="1.0" encoding="utf-8"?>
<!-- Generator: Adobe Illustrator 28.4.1, SVG Export Plug-In . SVG Version: 6.00 Build 0)  -->
<svg version="1.1" id="Layer_1" xmlns="http://www.w3.org/2000/svg" xmlns:xlink="http://www.w3.org/1999/xlink" x="0px" y="0px"
	 viewBox="0 0 566.9 566.9" style="enable-background:new 0 0 566.9 566.9;" xml:space="preserve">
<style type="text/css">
	.st0{fill:#952822;}
</style>
<path class="st0" d="M545.8,174.8H433.2L412.9,69.6C411.4,62,404,57,396.5,58.5c-7.6,1.5-12.6,8.8-11.1,16.4l19.3,99.9h-76.6V72.2
	c0-7.7-6.3-14-14-14s-14,6.3-14,14v102.6h-33.2V72.2c0-7.7-6.3-14-14-14s-14,6.3-14,14v102.6h-76.6l19.3-99.9
	c1.5-7.6-3.5-14.9-11.1-16.4c-7.6-1.5-14.9,3.5-16.4,11.1l-20.4,105.2H21.1c-7.7,0-14,6.3-14,14v131.7c0,7.7,6.3,14,14,14h42.5
	c7.7,0,14-6.3,14-14c0-19.7,7.7-34.6,23.6-45.5c4.3-2.9,9.2-5.6,14.6-7.9L69,509.2c-1.5,7.6,3.5,14.9,11.1,16.4
	c0.9,0.2,1.8,0.3,2.7,0.3c6.6,0,12.4-4.7,13.7-11.3l49.6-256.3c15.7-3,34-4.5,54.9-4.5h37.9v258.1c0,7.7,6.3,14,14,14s14-6.3,14-14
	V253.8h33.2v258.1c0,7.7,6.3,14,14,14s14-6.3,14-14V253.8H366c20.8,0,39.2,1.5,54.9,4.5l49.6,256.3c1.3,6.7,7.2,11.3,13.7,11.3
	c0.9,0,1.8-0.1,2.7-0.3c7.6-1.5,12.6-8.8,11.1-16.4l-46.8-242.1c5.4,2.3,10.3,5,14.6,7.9c15.9,10.9,23.6,25.7,23.6,45.5
	c0,7.7,6.3,14,14,14h42.5c7.7,0,14-6.3,14-14V188.8C559.8,181.1,553.5,174.8,545.8,174.8z M531.8,306.4h-15.5
	c-3.4-22.5-15.3-41.2-34.8-54.6c-25.3-17.3-64.2-26.1-115.5-26.1H201c-51.3,0-90.2,8.8-115.5,26.1c-19.5,13.3-31.4,32-34.8,54.6
	H35.1V202.8h496.7V306.4z"/>
</svg>
