<?xml version="1.0" encoding="utf-8"?>
<!-- Generator: Adobe Illustrator 28.4.1, SVG Export Plug-In . SVG Version: 6.00 Build 0)  -->
<svg version="1.1" id="Layer_1" xmlns:serif="http://www.serif.com/"
	 xmlns="http://www.w3.org/2000/svg" xmlns:xlink="http://www.w3.org/1999/xlink" x="0px" y="0px" viewBox="0 0 566.9 566.9"
	 style="enable-background:new 0 0 566.9 566.9;" xml:space="preserve">
<style type="text/css">
	.st0{fill-rule:evenodd;clip-rule:evenodd;fill:#952822;}
</style>
<path class="st0" d="M235.7,230l-46.2,12.4c-4.2,1.1-8.5-0.9-10.4-4.8l-27.6-58c-1.1-2.4-1.2-5.2,0-7.6s3.3-4.2,5.9-4.9l25.4-6.4
	c2.9-0.7,6,0,8.2,2l17.3,15.6l17.2-6.9L195,120.9c-2.1-2.5-6.6-8.8-6-16.7c0.3-4.3,2-9.2,6.8-14.2c6.4-6.5,14.8-7.3,22.8-5.2
	c9,2.4,17.1,8.7,17.1,8.7c0.5,0.4,0.9,0.8,1.3,1.3l50.3,60.3l15.9-3.2c2.2-0.6,12.3-3.1,22.8-2.3c9.3,0.7,18.7,4.1,24.9,11.8
	c17.3,21.6-6.1,38.6-6.1,38.6c-0.9,0.6-1.9,1.1-2.9,1.4l-43.8,11.7c-2.6,10.9-10.8,45.6-12,52.2c-0.9,4.9-3.3,12.5-7.8,18.8
	c-5.4,7.4-13.4,13-25.1,12.1c-11.9-1-16.9-9-18.7-17.1c-1.1-5.2-0.7-10.2-0.5-11.9L235.7,230L235.7,230z M192.1,223.1l143.5-38.4
	c2-1.9,5.9-6.5,1.4-12c-3-3.8-7.8-4.8-12.3-5.2c-8.6-0.7-16.8,1.7-16.8,1.7c-0.3,0.1-0.5,0.1-0.8,0.2l-21.5,4.3
	c-3.2,0.6-6.5-0.5-8.6-3l-53-63.6c-1.5-1.1-5.5-3.8-9.9-5c-1.8-0.5-3.9-1.1-5.4,0.4c-1.1,1.1-1.7,2.1-1.8,3
	c-0.2,2.1,1.6,3.5,1.6,3.5c0.6,0.5,1.1,1.2,1.5,1.9l36.5,60.1c1.4,2.2,1.7,5,0.8,7.5c-0.8,2.5-2.7,4.5-5.2,5.5l-32.2,12.9
	c-3.2,1.3-6.8,0.6-9.3-1.7l-17.9-16.1l-10.2,2.6L192.1,223.1L192.1,223.1z M278.6,218.5l-24.7,6.6l-1.9,43.3c0,0.3,0,0.7-0.1,1
	c0,0-0.4,2.9,0.2,5.9c0.3,1.3,0.8,2.9,2.7,3.1c4.3,0.4,7.1-1.9,9.1-4.7c2.8-3.9,4.2-8.7,4.7-11.7
	C269.6,256.8,275.1,233.4,278.6,218.5L278.6,218.5z M228.8,426.3h-24.4v-17.9h24.4c3.2-12.6,13.1-22.5,25.7-25.7v-24.4h17.9v24.4
	c12.6,3.2,22.5,13.1,25.7,25.7h22.2v17.9h-22.2c-4,15.4-18,26.8-34.7,26.8S232.7,441.7,228.8,426.3L228.8,426.3z M263.4,399.4
	c-9.9,0-17.9,8-17.9,17.9c0,9.9,8,17.9,17.9,17.9c9.9,0,17.9-8,17.9-17.9C281.3,407.4,273.3,399.4,263.4,399.4L263.4,399.4z
	 M498,445.7c3.6-1,7.5-1.7,12.1-1.9c22.1-0.9,44,15,44,15c4,2.9,4.8,8.5,1.9,12.5c-2.9,4-8.5,4.8-12.5,1.9c0,0-16.2-12.2-32.6-11.5
	c-8.4,0.4-13.7,3.3-20.1,6c-8.2,3.4-17.8,6.9-34.1,7.3c-16.8,0.4-27.1-4.6-36.4-9.5c-6.5-3.4-12.1-7.1-20.7-6
	c-17.1,2.2-25.6,17-25.6,17c-2.4,4.3-7.9,5.8-12.2,3.4c-4.3-2.4-5.8-7.9-3.4-12.2c0,0,12.8-22.6,38.9-25.9
	c6.7-0.9,12.3-0.1,17.4,1.6l-12.2-66.2c-0.8-4.2,1.5-8.3,5.4-9.9l14.3-5.9l10-39.9h50.5l10.1,40.3l12.4,5.6c3.7,1.7,5.9,5.7,5.1,9.7
	L498,445.7L498,445.7z M434.7,452.7c5.7,2.6,12.4,4.6,21.5,4.3c9.8-0.2,16.7-1.9,22.3-3.8l13-72.5l-33.1-14.9l-37,15.1L434.7,452.7
	L434.7,452.7z M442.9,352.9l12.4-5.1c2.3-0.9,4.8-0.9,7.1,0.1l9.8,4.4l-3.3-13.1h-22.5L442.9,352.9L442.9,352.9z M447.9,313.5
	c-4.9,0-8.9-4-8.9-8.9c0-4.9,4-8.9,8.9-8.9h19.3c4.9,0,8.9,4,8.9,8.9c0,4.9-4,8.9-8.9,8.9H447.9L447.9,313.5z M122.2,464.5H55.1
	c-15.3,0-28-12.4-28.2-27.7c-0.6-31.7,0.8-62.2,4-90.7c1.6-14.1,13.6-24.8,27.9-24.8h59.9c14.3,0,26.2,10.6,27.8,24.8
	c3.2,28.1,4.5,58.7,4,90.7C150.1,452.1,137.5,464.5,122.2,464.5z M58.7,336.4c-6.6,0-12.2,4.9-12.9,11.5
	c-3.2,27.8-4.5,57.6-3.9,88.7c0.1,7.1,6.1,13,13.3,13h67.1c7.2,0,13.1-5.8,13.2-12.9c0.6-31.4-0.7-61.3-3.9-88.8
	c-0.7-6.5-6.3-11.5-12.9-11.5H58.7z M137.9,503.2l-18.8-18.8H58.2l-18.8,18.8l-10.6-10.6L52,469.3h73.3l23.2,23.2L137.9,503.2z
	 M110,396.8H67.2c-9.6,0-17.6-7.9-17.7-17.5c-0.1-6.7,0.3-10.1,1.2-17.8c0.2-1.5,0.4-3.1,0.6-4.9c0.9-8.3,7.9-14.5,16.3-14.5h42
	c8.3,0,15.3,6.2,16.3,14.5c0.2,1.9,0.4,3.5,0.6,5c0.9,7.5,1.3,10.9,1.2,17.8C127.6,389,119.7,396.8,110,396.8z M67.6,357.1
	c-0.7,0-1.3,0.5-1.4,1.2c-0.2,1.9-0.4,3.5-0.6,5c-0.9,7.4-1.2,10.2-1.1,15.9c0,1.5,1.2,2.7,2.7,2.7H110c1.5,0,2.7-1.2,2.7-2.6
	c0.1-5.9-0.2-8.6-1.1-15.8c-0.2-1.5-0.4-3.2-0.6-5.1c-0.1-0.7-0.7-1.2-1.4-1.2H67.6z M67.6,325.5l-14.9-1.7
	c0.9-7.9,7.6-13.8,15.5-13.8h40.8c7.9,0,14.6,5.9,15.5,13.8l-14.9,1.7c0-0.3-0.3-0.5-0.6-0.5H68.2C67.9,325,67.7,325.2,67.6,325.5z
	 M131.7,435.9c0,4.7-3.8,8.4-8.4,8.4c-4.7,0-8.4-3.8-8.4-8.4c0-4.7,3.8-8.4,8.4-8.4C127.9,427.5,131.7,431.3,131.7,435.9z
	 M62.5,435.9c0,4.7-3.8,8.4-8.4,8.4s-8.4-3.8-8.4-8.4c0-4.7,3.8-8.4,8.4-8.4S62.5,431.3,62.5,435.9z"/>
</svg>
