<?xml version="1.0" encoding="utf-8"?>
<!-- Generator: Adobe Illustrator 28.4.1, SVG Export Plug-In . SVG Version: 6.00 Build 0)  -->
<svg version="1.1" id="Layer_1" xmlns="http://www.w3.org/2000/svg" xmlns:xlink="http://www.w3.org/1999/xlink" x="0px" y="0px"
	 viewBox="0 0 566.9 566.9" style="enable-background:new 0 0 566.9 566.9;" xml:space="preserve">
<style type="text/css">
	.st0{fill:#952822;}
</style>
<g>
	<path class="st0" d="M287.7,380.7c5.5-5.5,14.5-5.5,20,0l1.1,1.1c16.4,16.4,43.2,16.4,59.6,0l1.9-1.9c2.7-2.7,6.2-4.1,10-4.1
		s7.3,1.5,10,4.1c16.4,16.4,43.2,16.4,59.6,0l2.3-2.3c2.7-2.7,6.2-4.1,10-4.1c3.8,0,7.3,1.5,10,4.1l3.2,3.2
		c16.4,16.4,43.2,16.4,59.6,0l15.5-15.5c5.5-5.5,5.5-14.3,0-19.8c-5.5-5.5-14.3-5.5-19.8,0L515.1,361c-5.5,5.5-14.5,5.5-20,0
		l-3.2-3.2c-8-8-18.5-12.3-29.8-12.3s-21.8,4.4-29.8,12.3l-2.3,2.3c-5.5,5.5-14.5,5.5-20,0c-8-8-18.5-12.3-29.8-12.3
		s-21.8,4.4-29.8,12.3l-1.9,1.9c-5.5,5.5-14.5,5.5-20,0l-1.1-1.1c-8-8-18.5-12.3-29.8-12.3s-21.8,4.4-29.8,12.3l-4.2,4.2
		c-2.3-11.3-4.4-23.2-6.4-35.5c-14.4-91.4-13.8-178.4-13.8-179.3c0,0,0-0.1,0-0.1V28.8c0-7.7-6.3-14-14-14H108.1
		c-7.7,0-14,6.3-14,14v519.3c0,7.7,6.3,14,14,14h242.8c6.8,0,12.6-4.8,13.8-11.5s-2.5-13.2-8.8-15.6c-4.2-1.6-8.3-3.6-12.3-6.1
		l12.1-12.1c5.5-5.5,14.5-5.5,20,0l1.1,1.1c8,8,18.5,12.3,29.8,12.3s21.8-4.4,29.8-12.3l1.9-1.9c5.5-5.5,14.5-5.5,20,0
		c16.4,16.4,43.2,16.4,59.6,0l2.3-2.3c2.7-2.7,6.2-4.1,10-4.1c7.7,0,14-6.3,14-14s-6.3-14-14-14c-11.3,0-21.8,4.4-29.8,12.3
		l-2.3,2.3c-5.5,5.5-14.5,5.5-20,0c-16.4-16.4-43.2-16.4-59.6,0l-1.9,1.9c-2.7,2.7-6.2,4.1-10,4.1s-7.3-1.5-10-4.1l-1.1-1.1
		c-16.4-16.4-43.2-16.4-59.6,0l-13.5,13.5c-9-10.2-17.2-23-24.8-38.4c0.5-0.4,0.9-0.7,1.3-1.1l22.2-22.2c5.5-5.5,14.5-5.5,20,0
		l1.1,1.1c16.4,16.4,43.2,16.4,59.6,0l1.9-1.9c5.5-5.5,14.5-5.5,20,0c16.4,16.4,43.2,16.4,59.6,0l2.3-2.3c2.7-2.7,6.2-4.1,10-4.1
		c3.8,0,7.3,1.5,10,4.1c5.5,5.5,14.3,5.5,19.8,0c5.5-5.5,5.5-14.3,0-19.8c-8-8-18.5-12.3-29.8-12.3s-21.8,4.4-29.8,12.3l-2.3,2.3
		c-5.5,5.5-14.5,5.5-20,0c-16.4-16.4-43.2-16.4-59.6,0l-1.9,1.9c-2.7,2.7-6.2,4.1-10,4.1s-7.3-1.5-10-4.1l-1.1-1.1
		c-16.4-16.4-43.2-16.4-59.6,0l-15.6,15.6c-5.3-14.2-10.2-29.9-14.6-47.1L287.7,380.7z M122.1,534.1V42.8h93.4v107.3
		c0,4.5-0.6,90.4,14.1,183.5c15.2,96.5,40.8,163.7,76.4,200.5H122.1z"/>
	<path class="st0" d="M63.2,14.8H23.1c-7.7,0-14,6.3-14,14s6.3,14,14,14h40.2c7.7,0,14-6.3,14-14S70.9,14.8,63.2,14.8z"/>
	<path class="st0" d="M63.2,534.1H23.1c-7.7,0-14,6.3-14,14s6.3,14,14,14h40.2c7.7,0,14-6.3,14-14S70.9,534.1,63.2,534.1z"/>
	<path class="st0" d="M63.2,404.3H23.1c-7.7,0-14,6.3-14,14s6.3,14,14,14h40.2c7.7,0,14-6.3,14-14S70.9,404.3,63.2,404.3z"/>
	<path class="st0" d="M63.2,274.5H23.1c-7.7,0-14,6.3-14,14c0,7.7,6.3,14,14,14h40.2c7.7,0,14-6.3,14-14
		C77.2,280.7,70.9,274.5,63.2,274.5z"/>
	<path class="st0" d="M63.2,144.6H23.1c-7.7,0-14,6.3-14,14s6.3,14,14,14h40.2c7.7,0,14-6.3,14-14S70.9,144.6,63.2,144.6z"/>
</g>
</svg>
