<?xml version="1.0" encoding="utf-8"?>
<!-- Generator: Adobe Illustrator 28.4.1, SVG Export Plug-In . SVG Version: 6.00 Build 0)  -->
<svg version="1.1" id="Layer_1" xmlns="http://www.w3.org/2000/svg" xmlns:xlink="http://www.w3.org/1999/xlink" x="0px" y="0px"
	 viewBox="0 0 566.9 566.9" style="enable-background:new 0 0 566.9 566.9;" xml:space="preserve">
<style type="text/css">
	.st0{fill:#952822;}
</style>
<path class="st0" d="M547.8,204.8c6.1,0.5,12.4,1,18.7,1.2l0.8-20c-38-1.5-73.7-8.4-103.8-20.2v-52.1c0-17-13.8-30.9-30.9-30.9
	c-17.1,0-30.9,13.8-30.9,30.9v52.4c-33.8,13-75.5,20.2-118.3,20.2s-84.5-7.1-118.3-20.2v-52.4c0-17-13.8-30.9-30.9-30.9
	c-17.1,0-30.9,13.8-30.9,30.9v51.7c-30,11.8-65.7,18.9-103.8,20.5l0.8,20c6.4-0.3,12.8-0.7,19.1-1.3v151H0v20h103.4v13.1H0.8v20
	h102.6v91.5H75.1v20h118.5v-20h-28.3v-91.5h236.5v-20H165.2v-13h236.7v124.5h-28.3v20H492v-20h-28.3v-91.5h103.2v-20H463.7v-13
	h103.4v-20h-19.3V204.8z M65.5,355.7h-26V202.4c8.9-1.3,17.5-2.8,26-4.7V355.7z M85.5,355.7v-163c6.1-1.8,12.1-3.7,17.9-5.8v168.8
	H85.5z M123.4,500.2V113.8c0-6,4.9-10.9,10.9-10.9s10.9,4.9,10.9,10.9v386.4H123.4z M183.3,355.7h-18.2V187.5
	c5.9,2.1,11.9,4,18.2,5.7V355.7z M228.5,355.7h-25.2V198.1c8.2,1.7,16.6,3.2,25.2,4.4V355.7z M273.5,355.7h-25V204.8
	c8.2,0.7,16.6,1.2,25,1.4V355.7z M318.7,355.7h-25.2V206.2c8.5-0.2,16.9-0.7,25.2-1.4V355.7z M363.8,355.7h-25.2V202.5
	c8.6-1.2,17-2.7,25.2-4.4V355.7z M401.7,355.7h-17.9V193.1c6.1-1.7,12.1-3.6,17.9-5.6V355.7z M421.9,500.2V113.8
	c0-6,4.9-10.9,10.9-10.9s10.9,4.9,10.9,10.9v386.4H421.9z M481.6,355.7h-18.1V187.2c5.9,2.1,11.9,4,18.1,5.8V355.7z M527.6,355.7
	h-26V198c8.4,1.8,17.1,3.4,26,4.6V355.7z"/>
</svg>
